<?xml version="1.0" encoding="UTF-8"?>
<svg version="1.1" xmlns="http://www.w3.org/2000/svg" width="104" height="168">
<path d="M0 0 C34.32 0 68.64 0 104 0 C104 55.44 104 110.88 104 168 C69.68 168 35.36 168 0 168 C0 112.56 0 57.12 0 0 Z " fill="#FCFCFC" transform="translate(0,0)"/>
<path d="M0 0 C7.2616009 4.35696054 11.16319593 8.67078407 14.4765625 16.4609375 C14.80978516 17.20279297 15.14300781 17.94464844 15.48632812 18.70898438 C16.40263134 20.76289358 17.28984197 22.82632956 18.1640625 24.8984375 C18.75960937 26.30029297 18.75960937 26.30029297 19.3671875 27.73046875 C20.45016767 30.67681187 20.63680643 32.79183456 20.1640625 35.8984375 C17.8515625 37.6484375 17.8515625 37.6484375 15.1640625 38.8984375 C14.1740625 39.5584375 13.1840625 40.2184375 12.1640625 40.8984375 C9.68359375 41.3125 9.68359375 41.3125 6.9765625 41.5234375 C6.07550781 41.59820312 5.17445312 41.67296875 4.24609375 41.75 C3.55902344 41.79898438 2.87195313 41.84796875 2.1640625 41.8984375 C2.27234375 43.77595703 2.27234375 43.77595703 2.3828125 45.69140625 C2.99238328 56.98138945 3.36422022 68.2811153 3.5390625 79.5859375 C3.57708984 80.85655029 3.61511719 82.12716309 3.65429688 83.4362793 C3.66525391 84.62390869 3.67621094 85.81153809 3.6875 87.03515625 C3.717229 88.62396606 3.717229 88.62396606 3.74755859 90.24487305 C3.1640625 92.8984375 3.1640625 92.8984375 0.90527344 94.66088867 C-8.29084562 98.81257441 -16.66643019 99.36356768 -26.7109375 99.2734375 C-27.99613281 99.28503906 -29.28132813 99.29664063 -30.60546875 99.30859375 C-51.50402344 99.24494333 -51.50402344 99.24494333 -57.8359375 92.8984375 C-58.3059082 90.67553711 -58.3059082 90.67553711 -58.26171875 88.05078125 C-58.25398438 87.06456787 -58.24625 86.07835449 -58.23828125 85.06225586 C-58.20863281 83.9975708 -58.17898437 82.93288574 -58.1484375 81.8359375 C-58.13296875 80.74224854 -58.1175 79.64855957 -58.1015625 78.52172852 C-57.89328881 66.30907981 -57.39875684 54.09934298 -56.8359375 41.8984375 C-57.50415527 41.85162842 -58.17237305 41.80481934 -58.86083984 41.7565918 C-67.8341895 41.01683283 -67.8341895 41.01683283 -71.4609375 38.7109375 C-72.11320312 38.32550781 -72.76546875 37.94007812 -73.4375 37.54296875 C-74.8359375 35.8984375 -74.8359375 35.8984375 -75.3125 33.3828125 C-74.6184599 28.30835536 -72.649401 23.99651886 -70.5859375 19.3359375 C-70.19019531 18.40330078 -69.79445313 17.47066406 -69.38671875 16.50976562 C-65.92896805 8.55693903 -63.29521537 4.05361024 -54.9609375 0.7109375 C-53.76726563 0.22238281 -52.57359375 -0.26617187 -51.34375 -0.76953125 C-35.45887735 -6.80153746 -15.72669159 -6.70958174 0 0 Z " fill="#FAFAFA" transform="translate(78.8359375,38.1015625)"/>
<path d="M0 0 C7.2616009 4.35696054 11.16319593 8.67078407 14.4765625 16.4609375 C14.80978516 17.20279297 15.14300781 17.94464844 15.48632812 18.70898438 C16.40263134 20.76289358 17.28984197 22.82632956 18.1640625 24.8984375 C18.75960937 26.30029297 18.75960937 26.30029297 19.3671875 27.73046875 C20.45016767 30.67681187 20.63680643 32.79183456 20.1640625 35.8984375 C17.8515625 37.6484375 17.8515625 37.6484375 15.1640625 38.8984375 C14.1740625 39.5584375 13.1840625 40.2184375 12.1640625 40.8984375 C9.68359375 41.3125 9.68359375 41.3125 6.9765625 41.5234375 C6.07550781 41.59820312 5.17445312 41.67296875 4.24609375 41.75 C3.55902344 41.79898438 2.87195313 41.84796875 2.1640625 41.8984375 C2.27234375 43.77595703 2.27234375 43.77595703 2.3828125 45.69140625 C2.99238328 56.98138945 3.36422022 68.2811153 3.5390625 79.5859375 C3.57708984 80.85655029 3.61511719 82.12716309 3.65429688 83.4362793 C3.66525391 84.62390869 3.67621094 85.81153809 3.6875 87.03515625 C3.717229 88.62396606 3.717229 88.62396606 3.74755859 90.24487305 C3.1640625 92.8984375 3.1640625 92.8984375 0.90527344 94.66088867 C-8.29084562 98.81257441 -16.66643019 99.36356768 -26.7109375 99.2734375 C-27.99613281 99.28503906 -29.28132813 99.29664063 -30.60546875 99.30859375 C-51.50402344 99.24494333 -51.50402344 99.24494333 -57.8359375 92.8984375 C-58.3059082 90.67553711 -58.3059082 90.67553711 -58.26171875 88.05078125 C-58.25398438 87.06456787 -58.24625 86.07835449 -58.23828125 85.06225586 C-58.20863281 83.9975708 -58.17898437 82.93288574 -58.1484375 81.8359375 C-58.13296875 80.74224854 -58.1175 79.64855957 -58.1015625 78.52172852 C-57.89328881 66.30907981 -57.39875684 54.09934298 -56.8359375 41.8984375 C-57.50415527 41.85162842 -58.17237305 41.80481934 -58.86083984 41.7565918 C-67.8341895 41.01683283 -67.8341895 41.01683283 -71.4609375 38.7109375 C-72.11320312 38.32550781 -72.76546875 37.94007812 -73.4375 37.54296875 C-74.8359375 35.8984375 -74.8359375 35.8984375 -75.3125 33.3828125 C-74.6184599 28.30835536 -72.649401 23.99651886 -70.5859375 19.3359375 C-70.19019531 18.40330078 -69.79445313 17.47066406 -69.38671875 16.50976562 C-65.92896805 8.55693903 -63.29521537 4.05361024 -54.9609375 0.7109375 C-53.76726563 0.22238281 -52.57359375 -0.26617187 -51.34375 -0.76953125 C-35.45887735 -6.80153746 -15.72669159 -6.70958174 0 0 Z M-43.8359375 -1.1015625 C-46.23888525 -0.22199294 -48.63197414 0.67606911 -51.0234375 1.5859375 C-52.03374023 1.95235352 -52.03374023 1.95235352 -53.06445312 2.32617188 C-59.11610495 4.65827185 -62.96192663 7.74364011 -65.78515625 13.7109375 C-66.37685028 15.10161526 -66.95613703 16.4976318 -67.5234375 17.8984375 C-67.81798828 18.59710938 -68.11253906 19.29578125 -68.41601562 20.015625 C-68.98320598 21.36668517 -69.54328582 22.72075886 -70.09521484 24.078125 C-70.72661523 25.62977999 -71.38230055 27.17151644 -72.04296875 28.7109375 C-73.00633716 30.98070706 -73.00633716 30.98070706 -72.8359375 33.8984375 C-67.47403649 36.51251622 -62.80158546 38.39072278 -56.8359375 38.8984375 C-56.5059375 34.6084375 -56.1759375 30.3184375 -55.8359375 25.8984375 C-55.11558822 30.2205332 -54.71320132 33.703378 -54.72241211 37.99560547 C-54.72248764 39.17637665 -54.72256317 40.35714783 -54.72264099 41.57369995 C-54.72780228 42.83328522 -54.73296356 44.09287048 -54.73828125 45.390625 C-54.7396962 46.69170197 -54.74111115 47.99277893 -54.74256897 49.33328247 C-54.74636906 52.77573603 -54.75617767 56.21814675 -54.76727295 59.6605835 C-54.77754125 63.17996644 -54.78207816 66.69935637 -54.78710938 70.21875 C-54.79780241 77.11199666 -54.81484839 84.00521502 -54.8359375 90.8984375 C-53.75876465 91.36934814 -52.6815918 91.84025879 -51.57177734 92.32543945 C-50.96586761 92.59032669 -50.35995789 92.85521393 -49.73568726 93.12812805 C-42.93328955 95.8863604 -36.46085794 96.2525385 -29.2109375 96.2109375 C-27.76485107 96.20682861 -27.76485107 96.20682861 -26.28955078 96.20263672 C-17.09760095 96.0690194 -8.11711642 95.17693628 0.1640625 90.8984375 C0.15962128 90.20733887 0.15518005 89.51624023 0.15060425 88.80419922 C0.11013963 82.21636977 0.07988438 75.62857617 0.06043816 69.04064941 C0.05010386 65.65562539 0.03614021 62.27070601 0.01318359 58.88574219 C-0.07585671 44.71262136 -0.10571575 30.91029692 2.1640625 16.8984375 C2.1640625 24.1584375 2.1640625 31.4184375 2.1640625 38.8984375 C8.52672335 38.02297955 8.52672335 38.02297955 14.1015625 35.8359375 C14.87371094 35.47371094 15.64585938 35.11148438 16.44140625 34.73828125 C17.00988281 34.46113281 17.57835938 34.18398437 18.1640625 33.8984375 C15.64096043 24.62655021 12.63770816 14.89054247 7.1640625 6.8984375 C6.5040625 6.8984375 5.8440625 6.8984375 5.1640625 6.8984375 C4.77089844 6.46144531 4.37773438 6.02445313 3.97265625 5.57421875 C1.36534004 3.15836853 -1.44848995 2.29659521 -4.7734375 1.0859375 C-5.99933594 0.62574219 -7.22523437 0.16554688 -8.48828125 -0.30859375 C-11.68929233 -1.36591091 -11.68929233 -1.36591091 -14.19921875 -0.37109375 C-16.16989343 1.15747253 -16.91745288 2.60222594 -17.8359375 4.8984375 C-16.8459375 4.8984375 -15.8559375 4.8984375 -14.8359375 4.8984375 C-20.7328791 7.95611092 -25.162707 9.66421805 -31.8359375 8.8984375 C-36.58144664 7.16450147 -38.91614725 4.96528821 -41.8359375 0.8984375 C-42.4959375 0.2384375 -43.1559375 -0.4215625 -43.8359375 -1.1015625 Z " fill="#1A1A1A" transform="translate(78.8359375,38.1015625)"/>
<path d="M0 0 C-0.33 0.66 -0.66 1.32 -1 2 C6.26 2 13.52 2 21 2 C19 4 19 4 16.87695312 4.24291992 C15.59208008 4.23675659 15.59208008 4.23675659 14.28125 4.23046875 C13.34925781 4.22853516 12.41726562 4.22660156 11.45703125 4.22460938 C10.48121094 4.21236328 9.50539062 4.20011719 8.5 4.1875 C7.52417969 4.18685547 6.54835937 4.18621094 5.54296875 4.18554688 C-1.71930804 4.14034598 -1.71930804 4.14034598 -4 3 C-1.34649227 6.73456644 0.50848985 8.85100903 5 10 C9.86847113 10.35407063 13.45710279 9.71620561 18 8 C19.32911682 7.65023242 20.66082739 7.30903983 22 7 C21 10 21 10 19.21484375 11.16796875 C12.70922486 14.08043278 7.85865639 15.31194317 0.875 12.9375 C-2.79424047 10.46475099 -5.31058867 7.48097566 -8 4 C-8.91523437 4.3609375 -9.83046875 4.721875 -10.7734375 5.09375 C-12.55621094 5.78984375 -12.55621094 5.78984375 -14.375 6.5 C-15.55835937 6.9640625 -16.74171875 7.428125 -17.9609375 7.90625 C-21 9 -21 9 -23 9 C-23.33 9.66 -23.66 10.32 -24 11 C-24.4434375 11.37769531 -24.886875 11.75539063 -25.34375 12.14453125 C-27.83637174 14.93697306 -29.0649466 18.27533154 -30.5 21.6875 C-30.79519531 22.37005859 -31.09039063 23.05261719 -31.39453125 23.75585938 C-33.40836189 28.45331895 -35.23447932 33.20402766 -37 38 C-35.64652311 38.46036629 -34.292173 38.91816537 -32.9375 39.375 C-31.80634766 39.75785156 -31.80634766 39.75785156 -30.65234375 40.1484375 C-27.4580255 41.17400654 -24.22583202 42.07833371 -21 43 C-21 36.73 -21 30.46 -21 24 C-20.67 24 -20.34 24 -20 24 C-17.27886184 35.46743456 -17.77555756 47.0458126 -17.875 58.75 C-17.88504994 60.81509983 -17.89417222 62.88020439 -17.90234375 64.9453125 C-17.92419753 69.9636602 -17.95861653 74.98177691 -18 80 C-18.33 80 -18.66 80 -19 80 C-19.33 73.4 -19.66 66.8 -20 60 C-20.33 60 -20.66 60 -21 60 C-21 55.38 -21 50.76 -21 46 C-23.2275 45.9071875 -23.2275 45.9071875 -25.5 45.8125 C-30.59246737 45.29019565 -35.56610433 44.03818457 -39 40 C-40.12754784 34.04802616 -37.10551342 28.75771135 -34.75 23.4375 C-34.35425781 22.50486328 -33.95851563 21.57222656 -33.55078125 20.61132812 C-30.09303055 12.65850153 -27.45927787 8.15517274 -19.125 4.8125 C-17.93132813 4.32394531 -16.73765625 3.83539063 -15.5078125 3.33203125 C-10.09744546 1.27753775 -5.83786303 -0.27799348 0 0 Z " fill="#1F1F1F" transform="translate(43,34)"/>
<path d="M0 0 C5.13157151 1.88709404 6.24527055 5.85582377 8.47265625 10.54296875 C15 25.31713555 15 25.31713555 15 29 C13.27656245 29.84511824 11.54595947 30.67563354 9.8125 31.5 C8.84957031 31.9640625 7.88664062 32.428125 6.89453125 32.90625 C3.97574739 34.00916428 2.07228187 34.090561 -1 34 C-1.02918634 29.64584756 -1.04686145 25.29172052 -1.0625 20.9375 C-1.07087891 19.70837891 -1.07925781 18.47925781 -1.08789062 17.21289062 C-1.10363389 11.37213863 -1.08469508 5.74802983 0 0 Z " fill="#F6F6F6" transform="translate(82,43)"/>
<path d="M0 0 C1.155 0.38542969 2.31 0.77085938 3.5 1.16796875 C11.18583222 4.77928054 15.00238641 9.56265202 18.3125 17.25 C18.64572266 17.97509766 18.97894531 18.70019531 19.32226562 19.44726562 C21.29489589 23.82957597 22.79301292 28.16222998 24 32.8125 C23.01 32.8125 22.02 32.8125 21 32.8125 C17.66666667 24.47916667 14.33333333 16.14583333 11 7.8125 C10.01 8.1425 9.02 8.4725 8 8.8125 C8 7.8225 8 6.8325 8 5.8125 C5.01719435 4.7547675 2.01617579 3.77074042 -1 2.8125 C-1.80050781 2.54179688 -2.60101563 2.27109375 -3.42578125 1.9921875 C-5.69615498 1.32824628 -7.63257088 0.83099554 -10 0.8125 C-12.83333333 2.97916667 -12.83333333 2.97916667 -15 5.8125 C-19.00815115 8.0275309 -22.46464892 8.21033781 -27 7.8125 C-30.57911238 6.36708923 -33.5913948 4.8901622 -36 1.8125 C-36 1.1525 -36 0.4925 -36 -0.1875 C-35.01 -0.1875 -34.02 -0.1875 -33 -0.1875 C-33.33 -0.8475 -33.66 -1.5075 -34 -2.1875 C-30.81310715 -2.38642707 -27.62548809 -2.56954784 -24.4375 -2.75 C-23.54224609 -2.80607422 -22.64699219 -2.86214844 -21.72460938 -2.91992188 C-13.96694594 -3.34616712 -7.39196255 -2.54923708 0 0 Z " fill="#232324" transform="translate(75,37.1875)"/>
<path d="M0 0 C0.33 0 0.66 0 1 0 C1.33 15.84 1.66 31.68 2 48 C13.09987903 51.5091068 13.09987903 51.5091068 23.7109375 52.390625 C24.97421875 52.37773437 26.2375 52.36484375 27.5390625 52.3515625 C28.80492188 52.31804687 30.07078125 52.28453125 31.375 52.25 C32.7083058 52.22985747 34.04164179 52.2116207 35.375 52.1953125 C38.58413718 52.14880327 41.79164838 52.08346722 45 52 C44.67 53.32 44.34 54.64 44 56 C39.94735382 56.07526343 35.8949892 56.12911541 31.84179688 56.16479492 C30.46867774 56.17969923 29.09560461 56.20002997 27.72265625 56.22631836 C18.19823953 56.40385683 8.22962272 56.51945253 -0.30029297 51.70043945 C-2 50 -2 50 -2.48583984 47.76123047 C-2.47762207 46.88869629 -2.4694043 46.01616211 -2.4609375 45.1171875 C-2.45835938 44.12581787 -2.45578125 43.13444824 -2.453125 42.11303711 C-2.42734375 41.04448486 -2.4015625 39.97593262 -2.375 38.875 C-2.36210937 37.77873291 -2.34921875 36.68246582 -2.3359375 35.55297852 C-2.11943089 23.66456673 -1.14425838 11.83059694 0 0 Z " fill="#111111" transform="translate(23,81)"/>
<path d="M0 0 C-0.33 0.66 -0.66 1.32 -1 2 C6.26 2 13.52 2 21 2 C19 4 19 4 16.87695312 4.24291992 C15.59208008 4.23675659 15.59208008 4.23675659 14.28125 4.23046875 C13.34925781 4.22853516 12.41726562 4.22660156 11.45703125 4.22460938 C10.48121094 4.21236328 9.50539063 4.20011719 8.5 4.1875 C7.52417969 4.18685547 6.54835938 4.18621094 5.54296875 4.18554688 C-1.71930804 4.14034598 -1.71930804 4.14034598 -4 3 C-1.34649227 6.73456644 0.50848985 8.85100903 5 10 C9.86847113 10.35407063 13.45710279 9.71620561 18 8 C19.32911682 7.65023242 20.66082739 7.30903983 22 7 C21 10 21 10 19.21484375 11.16796875 C12.70922486 14.08043278 7.85865639 15.31194317 0.875 12.9375 C-2.79424047 10.46475099 -5.31058867 7.48097566 -8 4 C-10.31 4.66 -12.62 5.32 -15 6 C-15.66 5.34 -16.32 4.68 -17 4 C-5.47835991 -0.59225513 -5.47835991 -0.59225513 0 0 Z " fill="#848484" transform="translate(43,34)"/>
<path d="M0 0 C7.92 0.33 15.84 0.66 24 1 C23.67 2.32 23.34 3.64 23 5 C18.22391255 7.67460897 14.54326946 8.60472031 9 8 C5.42088762 6.55458923 2.4086052 5.0776622 0 2 C0 1.34 0 0.68 0 0 Z " fill="#111111" transform="translate(39,37)"/>
<path d="M0 0 C0.33 0 0.66 0 1 0 C1.12366555 4.07487494 1.21436476 8.14902301 1.2746582 12.2253418 C1.29979219 13.61160304 1.33390592 14.99773187 1.37719727 16.38354492 C1.43788396 18.37621037 1.46354879 20.36984533 1.48828125 22.36328125 C1.51446533 23.56251221 1.54064941 24.76174316 1.56762695 25.99731445 C1 29 1 29 -1.37426758 30.84057617 C-2.67400513 31.41449097 -2.67400513 31.41449097 -4 32 C-5.2375 32.5878125 -5.2375 32.5878125 -6.5 33.1875 C-9.14727001 34.04786275 -11.23521705 34.1579876 -14 34 C-13.81640625 32.109375 -13.81640625 32.109375 -13 30 C-10.71484375 28.953125 -10.71484375 28.953125 -7.9375 28.25 C-7.01839844 28.00765625 -6.09929687 27.7653125 -5.15234375 27.515625 C-4.44207031 27.34546875 -3.73179688 27.1753125 -3 27 C-1.0422461 18.02854522 -0.43591815 9.14280961 0 0 Z " fill="#292929" transform="translate(81,102)"/>
<path d="M0 0 C2.24434537 3.36651805 2.20138902 4.21596988 1.9765625 8.10546875 C1.925 9.08837891 1.8734375 10.07128906 1.8203125 11.08398438 C1.75585938 12.10814453 1.69140625 13.13230469 1.625 14.1875 C1.56828125 15.22326172 1.5115625 16.25902344 1.453125 17.32617188 C1.31163334 19.88481271 1.16022134 22.44247484 1 25 C-0.59217105 24.70602009 -2.18308181 24.40520968 -3.7734375 24.1015625 C-4.65950684 23.93479004 -5.54557617 23.76801758 -6.45849609 23.59619141 C-9.59260488 22.86098548 -12.22133778 21.60869918 -15 20 C-15 19.01 -15 18.02 -15 17 C-13.7315625 17.433125 -13.7315625 17.433125 -12.4375 17.875 C-8.9858871 19.00461877 -5.49202281 20.0022792 -2 21 C-1.01 10.605 -1.01 10.605 0 0 Z " fill="#A5A6A5" transform="translate(21,52)"/>
<path d="M0 0 C-5.75 3 -5.75 3 -8 3 C-8.33 3.66 -8.66 4.32 -9 5 C-9.47945068 5.46164551 -9.95890137 5.92329102 -10.45288086 6.39892578 C-12.08628276 8.08929183 -12.83913816 9.46593792 -13.75390625 11.6171875 C-14.05103516 12.30683594 -14.34816406 12.99648438 -14.65429688 13.70703125 C-14.95400391 14.42246094 -15.25371094 15.13789062 -15.5625 15.875 C-15.86607422 16.58269531 -16.16964844 17.29039063 -16.48242188 18.01953125 C-18.0383157 21.66011941 -19.54824851 25.31645145 -21 29 C-21.66 28.01 -22.32 27.02 -23 26 C-22.55615234 23.99462891 -22.55615234 23.99462891 -21.5859375 21.7265625 C-21.06193359 20.4890625 -21.06193359 20.4890625 -20.52734375 19.2265625 C-20.14707031 18.36804688 -19.76679688 17.50953125 -19.375 16.625 C-19.01792969 15.77421875 -18.66085938 14.9234375 -18.29296875 14.046875 C-15.70001764 8.03721936 -13.4648947 3.32047931 -7.5 0.125 C-3.00187617 -1.32082552 -3.00187617 -1.32082552 0 0 Z " fill="#242424" transform="translate(28,40)"/>
<path d="M0 0 C2.56616632 3.84924948 2.55097676 6.4349304 3 11 C4.8161982 10.57811541 6.62794073 10.13700835 8.4375 9.6875 C9.44683594 9.44386719 10.45617187 9.20023438 11.49609375 8.94921875 C12.73552734 8.47935547 12.73552734 8.47935547 14 8 C14.33 7.01 14.66 6.02 15 5 C15.33 6.65 15.66 8.3 16 10 C14.27656245 10.84511824 12.54595947 11.67563354 10.8125 12.5 C9.84957031 12.9640625 8.88664062 13.428125 7.89453125 13.90625 C5 15 5 15 0 15 C0 10.05 0 5.1 0 0 Z " fill="#B1B1B1" transform="translate(81,62)"/>
<path d="M0 0 C0.66 0.165 1.32 0.33 2 0.5 C7.80921953 1.46820325 13.25191935 1.14961613 19 0 C19 0.99 19 1.98 19 3 C14.23861467 5.8568312 10.43932615 6.84180048 5 6 C1.5 4.5 1.5 4.5 -1 3 C-0.67 2.01 -0.34 1.02 0 0 Z " fill="#E7E7E7" transform="translate(42,46)"/>
<path d="M0 0 C-0.33 0.66 -0.66 1.32 -1 2 C6.26 2 13.52 2 21 2 C19 4 19 4 16.92456055 4.24291992 C16.08707275 4.23881104 15.24958496 4.23470215 14.38671875 4.23046875 C13.46826172 4.22853516 12.54980469 4.22660156 11.60351562 4.22460938 C10.64123047 4.21236328 9.67894531 4.20011719 8.6875 4.1875 C7.73681641 4.18685547 6.78613281 4.18621094 5.80664062 4.18554688 C-1.40369043 4.14019888 -1.40369043 4.14019888 -4.58666992 3.3918457 C-7.27518993 2.73326307 -7.27518993 2.73326307 -10.625 4.5625 C-11.73875 5.036875 -12.8525 5.51125 -14 6 C-14.99 5.34 -15.98 4.68 -17 4 C-5.47835991 -0.59225513 -5.47835991 -0.59225513 0 0 Z " fill="#787878" transform="translate(43,34)"/>
<path d="M0 0 C0.66 0 1.32 0 2 0 C1.9375 2.25 1.9375 2.25 1 5 C-2.59263776 7.959199 -5.3243058 9 -10 9 C-9.78515625 7.109375 -9.78515625 7.109375 -9 5 C-6.93359375 3.953125 -6.93359375 3.953125 -4.4375 3.25 C-3.61121094 3.00765625 -2.78492187 2.7653125 -1.93359375 2.515625 C-0.97646484 2.26039062 -0.97646484 2.26039062 0 2 C0 1.34 0 0.68 0 0 Z " fill="#121212" transform="translate(97,70)"/>
<path d="M0 0 C-1 3 -1 3 -2.75 4.1875 C-5.29960574 5.10819096 -7.30923081 5.14948718 -10 5 C-9.6875 3.0625 -9.6875 3.0625 -9 1 C-5.8035914 -0.06546953 -3.34252724 -0.07427838 0 0 Z " fill="#1F1F1F" transform="translate(77,131)"/>
<path d="M0 0 C4.0311783 1.3437261 4.80130597 3.45371931 7 7 C7.99 8.485 7.99 8.485 9 10 C5.54537888 9.74410214 4.72618453 8.71373837 2.25 6.125 C0 3 0 3 0 0 Z " fill="#949495" transform="translate(36,36)"/>
<path d="M0 0 C1.96276032 2.94414048 2.25476379 3.80204933 2.5 7.125 C2.665 8.40375 2.83 9.6825 3 11 C3.66 11.33 4.32 11.66 5 12 C3.35 12.33 1.7 12.66 0 13 C0 8.71 0 4.42 0 0 Z " fill="#CACACB" transform="translate(81,62)"/>
<path d="M0 0 C3.91211733 1.15585285 6.8745041 2.35534962 10 5 C8.375 5.6875 8.375 5.6875 6 6 C2.75 4.5625 2.75 4.5625 0 3 C0 2.01 0 1.02 0 0 Z " fill="#B9B9B9" transform="translate(6,69)"/>
<path d="M0 0 C-5.75 3 -5.75 3 -8 3 C-8.33 3.66 -8.66 4.32 -9 5 C-9.99 4.34 -10.98 3.68 -12 3 C-10.75823305 2.29773859 -9.50614401 1.61370891 -8.25 0.9375 C-7.20585937 0.36322266 -7.20585937 0.36322266 -6.140625 -0.22265625 C-3.63859372 -1.1312406 -2.4667645 -0.88336837 0 0 Z " fill="#2B2B2B" transform="translate(28,40)"/>
<path d="M0 0 C2.6855594 2.6855594 3.06049974 5.37621328 4 9 C3.01 9 2.02 9 1 9 C-1.125 2.25 -1.125 2.25 0 0 Z " fill="#3B3A3B" transform="translate(95,61)"/>
<path d="M0 0 C2.31 0.33 4.62 0.66 7 1 C7.33 1.99 7.66 2.98 8 4 C6.02 4.33 4.04 4.66 2 5 C2 4.01 2 3.02 2 2 C1.34 1.34 0.68 0.68 0 0 Z " fill="#464646" transform="translate(61,34)"/>
</svg>
